<?xml version="1.0" encoding="UTF-8"?>
<svg id="Camada_2" data-name="Camada 2" xmlns="http://www.w3.org/2000/svg" viewBox="0 0 438.06 394.49">
  <defs>
    <style>
      .cls-1 {
        fill: #46624c;
      }

      .cls-2 {
        fill: #dddfd2;
      }
    </style>
  </defs>
  <g id="Layer_1" data-name="Layer 1">
    <path class="cls-1" d="M368.8,58.74c-.2,7.95-1.96,15.93-5.22,23.28h-29.47c6.52-6.2,9.73-15.08,9.95-23.91.4-15.76-8.9-32.16-30.59-33.26-1.33-.07-2.68-.1-4.02-.1-35.84,0-66.12,24.29-75.23,57.27h-30.36c-9.11-32.98-39.39-57.27-75.22-57.27-1.33,0-2.69.03-4.03.1-21.68,1.1-30.98,17.5-30.58,33.26.22,8.83,3.43,17.72,9.95,23.91h-29.47c-3.25-7.36-5.02-15.33-5.22-23.28C68.56,31.02,86.91,1.98,123.34.13c1.75-.08,3.53-.13,5.28-.13,38.99,0,72.99,21.84,90.4,53.93C236.44,21.84,270.44,0,309.44,0c1.74,0,3.52.05,5.28.13,36.43,1.85,54.78,30.88,54.08,58.61Z"/>
    <path class="cls-2" d="M25.16,90.41h121.33v109.44H25.16c-13.9,0-25.16-11.27-25.16-25.16v-59.11c0-13.9,11.26-25.16,25.16-25.16Z"/>
    <path class="cls-2" d="M438.06,115.58v59.11c0,13.89-11.27,25.16-25.16,25.16h-121.33v-109.44h121.33c13.89,0,25.16,11.26,25.16,25.16Z"/>
    <path class="cls-2" d="M162.83,208.24v186.25H57.2c-12.83,0-23.24-10.41-23.24-23.25v-163h128.87Z"/>
    <path class="cls-2" d="M404.1,208.24v163c0,12.84-10.41,23.25-23.25,23.25h-105.62v-186.25h128.87Z"/>
    <rect class="cls-1" x="154.88" y="90.41" width="128.3" height="109.44"/>
    <rect class="cls-1" x="171.22" y="208.24" width="95.62" height="186.25"/>
  </g>
</svg>